Info:
General
Unique ID : 224962115394002857878523369951537939345 (0xA93E209FD7A42E43ADE9DB2820204391)
Complete name : Faces In The Crowd 720p BRRiP x264-ChEtAn.mkv
Format : Matroska
Format version : Version 2
File size : 546 MiB
Duration : 1h 42mn
Overall bit rate : 745 Kbps
Encoded date : UTC 2011-10-19 07:34:36
Writing application : mkvmerge v5.0.1 ('Es ist Sommer') built on Oct 9 2011 11:55:43
Writing library : libebml v1.2.2 + libmatroska v1.3.0

Video
ID : 1
Format : AVC
Format/Info : Advanced Video Codec
Format profile : Main@L3.1
Format settings, CABAC : Yes
Format settings, ReFrames : 4 frames
Muxing mode : Header stripping
Codec ID : V_MPEG4/ISO/AVC
Duration : 1h 42mn
Bit rate : 587 Kbps
Width : 1 276 pixels
Height : 534 pixels
Display aspect ratio : 2.40:1
Frame rate mode : Variable
Frame rate : 24.000 fps
Color space : YUV
Chroma subsampling : 4:2:0
Bit depth : 8 bits
Scan type : Progressive
Bits/(Pixel*Frame) : 0.036
Stream size : 418 MiB (77%)
Title : ChEtAn
Writing library : x264 core 112
Encoding settings : cabac=1 / ref=2 / deblock=1:0:0 / analyse=0x1:0x111 / me=hex / subme=6 / psy=1 / psy_rd=1.00:0.00 / mixed_ref=0 / me_range=16 / chroma_me=1 / trellis=0 / 8x8dct=0 / cqm=0 / deadzone=21,11 / fast_pskip=1 / chroma_qp_offset=-2 / threads=6 / sliced_threads=0 / nr=0 / decimate=1 / interlaced=0 / constrained_intra=0 / bframes=2 / b_pyramid=2 / b_adapt=1 / b_bias=0 / direct=1 / weightb=0 / open_gop=0 / weightp=2 / keyint=240 / keyint_min=24 / scenecut=40 / intra_refresh=0 / rc_lookahead=40 / rc=abr / mbtree=1 / bitrate=587 / ratetol=1.0 / qcomp=0.60 / qpmin=3 / qpmax=51 / qpstep=4 / ip_ratio=1.40 / aq=1:1.00
Language : English
Color primaries : BT.709-5, BT.1361, IEC 61966-2-4, SMPTE RP177
Transfer characteristics : BT.709-5, BT.1361
Matrix coefficients : BT.709-5, BT.1361, IEC 61966-2-4 709, SMPTE RP177

Audio
ID : 2
Format : AC-3
Format/Info : Audio Coding 3
Mode extension : CM (complete main)
Muxing mode : Header stripping
Codec ID : A_AC3
Duration : 1h 42mn
Bit rate mode : Constant
Bit rate : 160 Kbps
Channel(s) : 2 channels
Channel positions : Front: L R
Sampling rate : 48.0 KHz
Bit depth : 16 bits
Compression mode : Lossy
Stream size : 117 MiB (21%)
Title : ChEtAn
Language : English
Subtitles : English
Source : BlueRay
Sample :Included in torrent

Screens:
 
http://www.shareimage.org/images/thhr16d1qo7eillnhjyv.png
 
http://www.shareimage.org/images/o9khpo27974rwl27xb7k.png
 
http://www.shareimage.org/images/roo28v6oh32yf0ln186.png
 
http://www.shareimage.org/images/nukia0226dnshm67hk4.png
 
http://www.shareimage.org/images/ww8wvv5zuisp15r76p3y.png
 
http://www.shareimage.org/images/2n6fr0zq0jjlsrhvxc3v.png